<svg xmlns="http://www.w3.org/2000/svg" xmlns:xlink="http://www.w3.org/1999/xlink" version="1.1" x="0px" y="0px" viewBox="1510.3 925.7 351.4 347.4" style="enable-background:new 1510.3 925.7 351.4 347.4;" xml:space="preserve"><path d="M1685.3,1272.1c-4.1,0-7.5-3.4-7.5-7.5v-56.4c-24.7-0.9-47-10-64.5-25c-0.1,0.1-0.2,0.3-0.4,0.4l-37.2,40.2  c-2.8,3-7.6,3.2-10.6,0.4c-3-2.8-3.2-7.6-0.4-10.6l37.2-40.2c0.2-0.3,0.5-0.5,0.8-0.7c-15.5-17.6-25.4-40.7-27-66.5h-55.9  c-4.1,0-7.5-3.4-7.5-7.5s3.4-7.5,7.5-7.5h56c1.7-24.8,11.7-47.3,27.3-64.9l-41.1-38.2c-3-2.8-3.2-7.6-0.4-10.6  c2.8-3,7.6-3.2,10.6-0.4l41.6,38.7c17.7-15.2,40.4-24.9,65.2-26.2v-56.6c0-4.1,3.4-7.5,7.5-7.5s7.5,3.4,7.5,7.5v56.8  c24.4,2,46.5,12.1,63.8,27.5c0.1-0.1,0.2-0.3,0.4-0.4l37.2-40.2c2.8-3,7.6-3.2,10.6-0.4c3,2.8,3.2,7.6,0.4,10.6l-37.2,40.2  c-0.3,0.3-0.6,0.6-1,0.9c15,17.6,24.5,39.9,25.9,64.3c0.1,0,0.2,0,0.3,0h56.8c4.1,0,7.5,3.4,7.5,7.5s-3.4,7.5-7.5,7.5h-56.8  c-0.2,0-0.3,0-0.5,0c-1.9,24.1-12.2,46.7-29.4,64.9c0,0,0.1,0.1,0.1,0.1l40.2,40.2c2.9,2.9,2.9,7.7,0,10.6c-2.9,2.9-7.7,2.9-10.6,0  L1754,1183c-0.2-0.2-0.3-0.4-0.5-0.5c-17.5,14.3-38.5,23-60.7,25.2v56.8C1692.8,1268.7,1689.4,1272.1,1685.3,1272.1z M1684.8,1004.6  c-52,0-94.4,42.3-94.4,94.4c0,52.9,40.1,94.4,91.2,94.4c52.9,0,97.5-43.2,97.5-94.4C1779.2,1046.9,1736.9,1004.6,1684.8,1004.6z"></path></svg>