<svg xmlns="http://www.w3.org/2000/svg" xmlns:xlink="http://www.w3.org/1999/xlink" version="1.1" x="0px" y="0px" viewBox="1607.8 398.3 406.6 371.6" style="enable-background:new 1607.8 398.3 406.6 371.6;" xml:space="preserve"><path d="M1848.1,769.9c-4.1,0-7.5-3.4-7.5-7.5v-32.5c-14.8-1.1-28.2-6.7-38.9-15.5l-23.4,25.4c-2.8,3-7.6,3.2-10.6,0.4  c-3-2.8-3.2-7.6-0.4-10.6l23.5-25.5c0.1-0.2,0.3-0.3,0.4-0.4c-8.4-10.6-13.8-23.9-15.1-38.5h-33.7c-4.1,0-7.5-3.4-7.5-7.5  s3.4-7.5,7.5-7.5h33.8c1.5-14.1,7.2-27,15.7-37.5l-26-24.2c-3-2.8-3.2-7.6-0.4-10.6c2.8-3,7.6-3.2,10.6-0.4l26.4,24.6  c10.8-8.7,24.1-14.4,38.7-15.7c0-0.1,0-0.3,0-0.4v-36c0-4.1,3.4-7.5,7.5-7.5s7.5,3.4,7.5,7.5v36c0,0.2,0,0.4,0,0.6  c12.8,1.5,24.6,6.4,34.4,13.7l20.9-22.7c2.8-3,7.6-3.2,10.6-0.4c3,2.8,3.2,7.6,0.4,10.6l-20.9,22.7c9.9,11.2,16.4,25.6,17.8,41.4  c0,0,0,0,0.1,0h7.4c39.9,0,72.4-32.5,72.4-72.4S1966.9,507,1927,507h-1.2c-2.2,0-4.3-1-5.7-2.7c-1.4-1.7-2-3.9-1.6-6.1  c0.7-4,1.1-8.3,1.1-12.5c0-39.9-32.5-72.4-72.4-72.4c-32.5,0-61.2,21.8-69.8,53.1c-0.6,2.2-2.2,4-4.3,4.9c-2.1,0.9-4.5,0.8-6.5-0.4  c-14.4-8-30.7-12.3-47.2-12.3c-53.2,0-96.5,43.3-96.5,96.5c0,32.9,12.6,61.8,34.5,79.1c3.3,2.6,3.8,7.3,1.2,10.5  c-2.6,3.3-7.3,3.8-10.5,1.2c-25.6-20.2-40.3-53.3-40.3-90.9c0-61.5,50-111.5,111.5-111.5c16,0,31.9,3.5,46.4,10.1  c13-33.1,45.2-55.5,81.4-55.5c48.2,0,87.4,39.2,87.4,87.4c0,2.2-0.1,4.4-0.2,6.6c44.8,3.7,80.1,41.4,80.1,87.1  c0,48.2-39.2,87.4-87.4,87.4h-7.4c-0.1,0-0.2,0-0.3,0c-1.7,13.6-7.4,26.3-16.6,37c0,0,0.1,0.1,0.1,0.1l25.5,25.5  c2.9,2.9,2.9,7.7,0,10.6c-2.9,2.9-7.7,2.9-10.6,0l-25.5-25.5c-0.1-0.1-0.2-0.3-0.4-0.4c-10.6,8.3-23.1,13.6-36.2,15.3v32.9  C1855.6,766.5,1852.2,769.9,1848.1,769.9z M1847.8,601.1c-31.4,0-57,25.6-57,57c0,32,24.2,57,55,57c32,0,59-26.1,59-57  C1904.8,626.7,1879.2,601.1,1847.8,601.1z"></path></svg>