<svg xmlns="http://www.w3.org/2000/svg" xmlns:xlink="http://www.w3.org/1999/xlink" version="1.1" x="0px" y="0px" viewBox="-15.8 -760.4 406.5 268.4" style="enable-background:new -15.8 -760.4 406.5 268.4;" xml:space="preserve"><path d="M303.3-492H95.7c-61.5,0-111.5-50-111.5-111.5S34.2-715,95.7-715c16.1,0,31.9,3.5,46.4,10.1c13-33.1,45.2-55.5,81.4-55.5  c48.2,0,87.4,39.2,87.4,87.4c0,2.2-0.1,4.4-0.2,6.6c44.8,3.7,80,41.3,80,87C390.7-531.2,351.5-492,303.3-492z M95.7-700  c-53.2,0-96.5,43.3-96.5,96.5S42.5-507,95.7-507h207.6c39.9,0,72.4-32.5,72.4-72.4c0-39.9-32.4-72.3-72.3-72.3h-1.2  c-2.2,0-4.3-1-5.7-2.7c-1.4-1.7-2-3.9-1.6-6.1c0.7-4,1.1-8.3,1.1-12.5c0-39.9-32.5-72.4-72.4-72.4c-32.5,0-61.2,21.8-69.8,53.1  c-0.6,2.2-2.2,4-4.3,4.9c-2.1,0.9-4.5,0.7-6.6-0.4C128.5-695.8,112.2-700,95.7-700z"></path></svg>