<svg xmlns="http://www.w3.org/2000/svg" xmlns:xlink="http://www.w3.org/1999/xlink" version="1.1" x="0px" y="0px" viewBox="1606.9 476.8 406.6 332.3" style="enable-background:new 1606.9 476.8 406.6 332.3;" xml:space="preserve"><path d="M1779,809.1c-1.3,0-2.6-0.3-3.7-1c-3.6-2.1-4.8-6.7-2.8-10.2l72.8-126.3c2.1-3.6,6.7-4.8,10.2-2.8c3.6,2.1,4.8,6.7,2.8,10.2  l-72.8,126.3C1784.1,807.8,1781.6,809.1,1779,809.1z M1836.6,809c-1.3,0-2.6-0.3-3.7-1c-3.6-2.1-4.8-6.7-2.7-10.2l72.9-126.2  c2.1-3.6,6.7-4.8,10.2-2.7s4.8,6.7,2.7,10.2l-72.9,126.2C1841.7,807.7,1839.2,809,1836.6,809z M1720.7,808.9c-1.3,0-2.6-0.3-3.7-1  c-3.6-2.1-4.8-6.7-2.7-10.2l72.9-126.2c2.1-3.6,6.7-4.8,10.2-2.7c3.6,2.1,4.8,6.7,2.7,10.2l-72.9,126.2  C1725.8,807.6,1723.3,808.9,1720.7,808.9z M1926,745.3h-7.4c-4.1,0-7.5-3.4-7.5-7.5s3.4-7.5,7.5-7.5h7.4c39.9,0,72.4-32.5,72.4-72.4  s-32.5-72.4-72.4-72.4h-1.2c-2.2,0-4.3-1-5.7-2.7c-1.4-1.7-2-3.9-1.6-6.1c0.7-4,1.1-8.2,1.1-12.5c0-39.9-32.5-72.4-72.4-72.4  c-32.5,0-61.2,21.8-69.8,53.1c-0.6,2.2-2.2,4-4.3,4.9s-4.5,0.8-6.6-0.4c-14.3-8-30.6-12.2-47.1-12.2c-53.2,0-96.5,43.3-96.5,96.5  c0,55.9,36.4,96.5,86.5,96.5c4.1,0,7.5,3.4,7.5,7.5s-3.4,7.5-7.5,7.5c-58.8,0-101.5-46.9-101.5-111.5c0-61.5,50-111.5,111.5-111.5  c16.1,0,32,3.5,46.4,10.1c13-33.1,45.2-55.5,81.4-55.5c48.2,0,87.4,39.2,87.4,87.4c0,2.2-0.1,4.4-0.2,6.6  c44.8,3.7,80.1,41.4,80.1,87.1C2013.4,706.1,1974.2,745.3,1926,745.3z"></path></svg>