<svg xmlns="http://www.w3.org/2000/svg" xmlns:xlink="http://www.w3.org/1999/xlink" version="1.1" x="0px" y="0px" viewBox="1708.6 167.2 406.6 384.9" style="enable-background:new 1708.6 167.2 406.6 384.9;" xml:space="preserve"><path d="M1943.3,552.1c-1.2,0-2.5-0.3-3.7-1c-3.6-2-4.9-6.6-2.8-10.2l50.7-89.8c2-3.6,6.6-4.9,10.2-2.8c3.6,2,4.9,6.6,2.8,10.2  l-50.7,89.8C1948.5,550.7,1945.9,552.1,1943.3,552.1z M1893.1,551.3c-1.2,0-2.5-0.3-3.7-1c-3.6-2-4.9-6.6-2.8-10.2l50.7-89.8  c2-3.6,6.6-4.9,10.2-2.8c3.6,2,4.9,6.6,2.8,10.2l-50.7,89.8C1898.3,549.9,1895.7,551.3,1893.1,551.3z M1821.3,550.1  c-0.9,0-1.8-0.2-2.6-0.5c-3.5-1.3-5.5-5-4.7-8.6l20.2-94.6l-31.7-0.1c-2.5,0-4.9-1.3-6.3-3.4c-1.4-2.1-1.6-4.8-0.5-7.1L1836,346  c1.2-2.7,3.9-4.4,6.8-4.4c0,0,0,0,0.1,0l56.9,0.4c2.8,0,5.3,1.5,6.6,4c1.3,2.4,1.2,5.4-0.4,7.7l-30.9,46.9h22.6  c2.7,0,5.3,1.5,6.6,3.9s1.2,5.3-0.3,7.7l-9.9,15.4c-0.1,0.2-0.2,0.5-0.3,0.7l-65.8,118.1C1826.5,548.7,1824,550.1,1821.3,550.1z   M1814.1,431.4l29.3,0.1c2.3,0,4.4,1,5.8,2.8c1.4,1.8,2,4.1,1.5,6.3l-11.7,54.8l41.3-74.1c0.2-0.5,0.4-0.9,0.7-1.3l2.9-4.4h-22.8  c-2.8,0-5.3-1.5-6.6-3.9c-1.3-2.4-1.2-5.4,0.3-7.7l31-47l-38.2-0.3L1814.1,431.4z M2027.8,435.7h-7.4c-4.1,0-7.5-3.4-7.5-7.5  s3.4-7.5,7.5-7.5h7.4c39.9,0,72.4-32.5,72.4-72.4c0-39.9-32.5-72.4-72.4-72.4h-1.2c-2.2,0-4.3-1-5.7-2.7s-2-3.9-1.6-6.1  c0.7-4,1.1-8.2,1.1-12.5c0-39.9-32.5-72.4-72.4-72.4c-32.5,0-61.2,21.8-69.8,53.1c-0.6,2.2-2.2,4-4.3,4.9c-2.1,0.9-4.5,0.8-6.6-0.4  c-14.3-8-30.6-12.2-47.1-12.2c-53.2,0-96.5,43.3-96.5,96.5c0,32.9,12.6,61.7,34.6,79.1c3.2,2.6,3.8,7.3,1.2,10.5  c-2.6,3.2-7.3,3.8-10.5,1.2c-25.6-20.3-40.2-53.4-40.2-90.9c0-61.5,50-111.5,111.5-111.5c16.1,0,32,3.5,46.4,10.1  c13-33.1,45.2-55.5,81.4-55.5c48.2,0,87.4,39.2,87.4,87.4c0,2.2-0.1,4.4-0.2,6.6c44.8,3.7,80.1,41.4,80.1,87.1  C2115.2,396.5,2076,435.7,2027.8,435.7z"></path></svg>