<svg xmlns="http://www.w3.org/2000/svg" xmlns:xlink="http://www.w3.org/1999/xlink" version="1.1" x="0px" y="0px" viewBox="1607.4 982.1 406.6 371.1" style="enable-background:new 1607.4 982.1 406.6 371.1;" xml:space="preserve"><path d="M1861.7,1353.2c-4.1,0-7.5-3.4-7.5-7.5v-34l-29.1,16.8c-3.6,2.1-8.2,0.8-10.2-2.7c-2.1-3.6-0.8-8.2,2.7-10.2l29.2-16.9  l-28.8-16.6c-3.6-2.1-4.8-6.7-2.7-10.2c2.1-3.6,6.7-4.8,10.2-2.7l28.7,16.5V1252c0-4.1,3.4-7.5,7.5-7.5s7.5,3.4,7.5,7.5v34  l29.8-17.2c3.6-2.1,8.2-0.8,10.2,2.7s0.8,8.2-2.7,10.2l-29.5,17l29.9,17.3c3.6,2.1,4.8,6.7,2.7,10.2c-2.1,3.6-6.7,4.8-10.2,2.7  l-30.2-17.4v34.2C1869.2,1349.8,1865.8,1353.2,1861.7,1353.2z M1926.5,1250.6h-7.4c-4.1,0-7.5-3.4-7.5-7.5s3.4-7.5,7.5-7.5h7.4  c39.9,0,72.4-32.5,72.4-72.4s-32.5-72.4-72.4-72.4h-1.2c-2.2,0-4.3-1-5.7-2.7c-1.4-1.7-2-3.9-1.6-6.1c0.7-4,1.1-8.2,1.1-12.5  c0-39.9-32.5-72.4-72.4-72.4c-32.5,0-61.2,21.8-69.8,53.1c-0.6,2.2-2.2,4-4.3,4.9c-2.1,0.9-4.5,0.8-6.6-0.4  c-14.3-8-30.6-12.2-47.1-12.2c-53.2,0-96.5,43.3-96.5,96.5c0,55.9,36.4,96.5,86.5,96.5c4.1,0,7.5,3.4,7.5,7.5s-3.4,7.5-7.5,7.5  c-58.8,0-101.5-46.9-101.5-111.5c0-61.5,50-111.5,111.5-111.5c16.1,0,31.9,3.5,46.4,10.1c13-33.1,45.2-55.5,81.4-55.5  c48.2,0,87.4,39.2,87.4,87.4c0,2.2-0.1,4.4-0.2,6.6c44.8,3.7,80.1,41.4,80.1,87.1C2013.9,1211.4,1974.7,1250.6,1926.5,1250.6z   M1776.8,1247.7c-4.1,0-7.5-3.4-7.5-7.5v-34l-29.1,16.8c-3.6,2.1-8.2,0.8-10.2-2.7c-2.1-3.6-0.8-8.2,2.7-10.2l29.3-16.9l-28.9-16.7  c-3.6-2.1-4.8-6.7-2.7-10.2c2.1-3.6,6.7-4.8,10.2-2.7l28.7,16.5v-33.6c0-4.1,3.4-7.5,7.5-7.5s7.5,3.4,7.5,7.5v34l29.8-17.2  c3.6-2.1,8.2-0.8,10.2,2.7s0.8,8.2-2.7,10.2l-29.4,17l29.8,17.2c3.6,2.1,4.8,6.7,2.7,10.2c-2.1,3.6-6.7,4.8-10.2,2.7l-30.2-17.4  v34.3C1784.3,1244.3,1780.9,1247.7,1776.8,1247.7z"></path></svg>